<svg width="94" height="93" viewBox="0 0 94 93" fill="none" xmlns="http://www.w3.org/2000/svg">
<path d="M74.1247 46.5C74.1247 46.5 61.9975 61.9994 47.0004 61.9994C32.005 61.9994 19.876 46.5 19.876 46.5C19.876 46.5 32.0032 31.0006 47.0004 31.0006C61.9975 31.0006 74.1247 46.5 74.1247 46.5ZM47.0004 38.7494C44.9448 38.7494 42.9734 39.566 41.5198 41.0195C40.0663 42.473 39.2497 44.4444 39.2497 46.5C39.2497 48.5556 40.0663 50.527 41.5198 51.9805C42.9734 53.434 44.9448 54.2506 47.0004 54.2506C49.0559 54.2506 51.0274 53.434 52.4809 51.9805C53.9344 50.527 54.751 48.5556 54.751 46.5C54.751 44.4444 53.9344 42.473 52.4809 41.0195C51.0274 39.566 49.0559 38.7494 47.0004 38.7494Z" stroke="white" stroke-width="3.72" stroke-linecap="round" stroke-linejoin="round"/>
<path d="M12.125 27.1244V15.4994C12.125 14.4718 12.5332 13.4864 13.2598 12.7598C13.9864 12.0332 14.9718 11.625 15.9994 11.625H27.6244M81.875 27.1244V15.4994C81.875 14.4718 81.4668 13.4864 80.7402 12.7598C80.0136 12.0332 79.0282 11.625 78.0006 11.625H66.3756M12.125 65.8756V77.5006C12.125 78.5282 12.5332 79.5136 13.2598 80.2402C13.9864 80.9668 14.9718 81.375 15.9994 81.375H27.6244M81.875 65.8756V77.5006C81.875 78.5282 81.4668 79.5136 80.7402 80.2402C80.0136 80.9668 79.0282 81.375 78.0006 81.375H66.3756" stroke="white" stroke-width="3.72" stroke-linecap="round" stroke-linejoin="round"/>
</svg>
