<svg width="90" height="91" viewBox="0 0 90 91" fill="none" xmlns="http://www.w3.org/2000/svg">
<g clip-path="url(#clip0_320_300)">
<path fill-rule="evenodd" clip-rule="evenodd" d="M73.8339 2.93665C73.6968 2.38399 73.4154 1.87766 73.0183 1.46948C72.6213 1.0613 72.123 0.765917 71.5743 0.613549C71.0257 0.46118 70.4464 0.457298 69.8957 0.602298C69.3451 0.747297 68.8428 1.03598 68.4404 1.4388L55.5832 14.2959C55.1911 14.6889 54.9075 15.1767 54.7599 15.7118C54.6123 16.2469 54.6058 16.8111 54.7411 17.3495L57.0554 26.6324L56.9654 26.7224L41.5947 42.0931C40.743 43.0071 40.2794 44.2159 40.3014 45.465C40.3234 46.7141 40.8294 47.9058 41.7128 48.7892C42.5962 49.6726 43.7879 50.1786 45.037 50.2006C46.2861 50.2227 47.495 49.759 48.4089 48.9074L63.7925 33.5431L63.8825 33.4466L73.1589 35.7674C73.6973 35.9026 74.2615 35.8961 74.7967 35.7485C75.3318 35.601 75.8196 35.3173 76.2125 34.9252L89.0696 22.0681C89.4741 21.6658 89.7643 21.1631 89.9103 20.6116C90.0563 20.0601 90.0528 19.4797 89.9003 18.9299C89.7478 18.3802 89.4518 17.8809 89.0426 17.4834C88.6334 17.086 88.1257 16.8045 87.5718 16.6681L76.5854 13.9295L73.8339 2.93665ZM47.0397 5.37951C47.128 6.65474 46.7063 7.91286 45.8672 8.87725C45.0282 9.84165 43.8406 10.4334 42.5654 10.5224C35.8488 10.9878 29.407 13.3717 24.0055 17.3907C18.6039 21.4098 14.4697 26.895 12.094 33.1946C9.71836 39.4943 9.20112 46.3435 10.6038 52.9284C12.0064 59.5134 15.27 65.5573 20.0067 70.3419C24.7434 75.1266 30.7542 78.4508 37.3247 79.9197C43.8952 81.3886 50.7493 80.9403 57.0725 78.6282C63.3957 76.3161 68.9223 72.2373 72.9955 66.8765C77.0687 61.5157 79.5173 55.0982 80.0504 48.3866C80.1518 47.1113 80.7557 45.9286 81.7292 45.0985C82.7028 44.2685 83.9661 43.8591 85.2414 43.9606C86.5167 44.062 87.6995 44.6659 88.5296 45.6394C89.3596 46.613 89.769 47.8763 89.6675 49.1516C88.9872 57.703 85.8664 65.8794 80.6759 72.7094C75.4855 79.5393 68.4435 84.7357 60.3866 87.6812C52.3297 90.6267 43.5966 91.1975 35.2249 89.3258C26.8532 87.454 19.1947 83.2184 13.1594 77.1222C7.12405 71.0259 2.96556 63.3253 1.17797 54.9352C-0.609613 46.5451 0.0488409 37.8182 3.07511 29.7913C6.10137 21.7644 11.3682 14.775 18.25 9.65335C25.1317 4.53171 33.339 1.4932 41.8968 0.898797C43.172 0.810477 44.4301 1.23219 45.3945 2.07121C46.3589 2.91023 46.9507 4.10432 47.0397 5.37951ZM42.7197 26.5874C42.9507 27.177 43.0632 27.8064 43.051 28.4396C43.0387 29.0728 42.9018 29.6974 42.648 30.2776C42.3943 30.8579 42.0288 31.3825 41.5723 31.8215C41.1158 32.2604 40.5773 32.6051 39.9875 32.8359C37.8792 33.6629 36.0102 35.0023 34.5495 36.7329C33.0888 38.4635 32.0824 40.5309 31.6212 42.7481C31.1601 44.9654 31.2587 47.2626 31.9082 49.4321C32.5578 51.6017 33.7377 53.5752 35.3414 55.1742C36.9451 56.7733 38.922 57.9474 41.0935 58.5907C43.2649 59.2339 45.5624 59.3258 47.7783 58.8582C49.9942 58.3906 52.0586 57.3782 53.785 55.9124C55.5113 54.4466 56.8452 52.5738 57.6661 50.4631C57.8957 49.873 58.2393 49.3339 58.6773 48.8766C59.1153 48.4192 59.639 48.0527 60.2186 47.7978C60.7983 47.5429 61.4224 47.4047 62.0555 47.391C62.6886 47.3773 63.3181 47.4884 63.9082 47.7181C64.4983 47.9477 65.0374 48.2913 65.4947 48.7293C65.952 49.1672 66.3186 49.691 66.5735 50.2706C66.8284 50.8503 66.9666 51.4744 66.9803 52.1075C66.994 52.7406 66.8829 53.3701 66.6532 53.9602C65.2512 57.5646 62.9729 60.7627 60.0244 63.2655C57.0759 65.7682 53.5502 67.4966 49.7659 68.2945C45.9816 69.0924 42.0581 68.9346 38.3502 67.8353C34.6422 66.736 31.2667 64.7299 28.5288 61.9984C25.7909 59.2669 23.7769 55.8961 22.6689 52.1907C21.5609 48.4854 21.3939 44.5623 22.1829 40.7761C22.9719 36.99 24.692 33.4602 27.1878 30.5058C29.6837 27.5515 32.8764 25.2657 36.4775 23.8552C37.6676 23.3907 38.9935 23.4175 40.1639 23.9297C41.3343 24.442 42.2535 25.3979 42.7197 26.5874Z" fill="#6E2C76"/>
</g>
<defs>
<clipPath id="clip0_320_300">
<rect width="90" height="90" fill="white" transform="translate(0 0.5)"/>
</clipPath>
</defs>
</svg>
