<svg width="80" height="80" viewBox="0 0 80 80" fill="none" xmlns="http://www.w3.org/2000/svg">
<g clip-path="url(#clip0_192_17)">
<g clip-path="url(#clip1_192_17)">
<path d="M29.625 67.625C23.5 70.375 16.125 69.125 11.375 64.375C8.375 61.375 6.625 57.25 6.625 52.875C6.625 48.5 8.25 44.5 11.375 41.375L27.25 25.625L41.375 39.75C41.5 39.875 41.75 40 42 40C42.25 40 42.5 39.875 42.625 39.75C43 39.375 43 38.75 42.625 38.375L28.5 24.375L45.625 7.25C52 0.875 62.25 0.875 68.625 7.25C71.625 10.25 73.375 14.375 73.375 18.75C73.375 23.125 71.75 27.125 68.625 30.25L61 37.875C60.625 38.25 60.625 38.875 61 39.25C61.375 39.625 62 39.625 62.375 39.25L70 31.625C73.375 28.25 75.25 23.625 75.25 18.875C75.25 14 73.375 9.5 70 6.125C62.875 -0.875 51.375 -0.875 44.375 6.125L10 40.125C6.625 43.5 4.75 48.125 4.75 52.875C4.75 57.75 6.625 62.25 10 65.625C13.5 69.125 18.125 70.875 22.875 70.875C25.375 70.875 28 70.375 30.375 69.25C30.875 69 31 68.5 30.875 68C30.625 67.625 30.125 67.375 29.625 67.625Z" fill="white"/>
<path d="M27 33.25L14.875 45.375C14.5 45.75 14.5 46.375 14.875 46.75C15 46.875 15.25 47 15.5 47C15.75 47 16 46.875 16.125 46.75L28.25 34.625C28.625 34.25 28.625 33.625 28.25 33.25C28 32.875 27.375 32.875 27 33.25Z" fill="white"/>
<path d="M63.5 13.75C63.875 13.375 63.875 12.75 63.5 12.375C61 9.87499 58.25 8.62499 55.5 8.74999C51.25 8.99999 48.625 12.25 48.5 12.375L36 24.5C35.625 24.875 35.625 25.5 36 25.875C36.125 26.125 36.375 26.125 36.625 26.125C36.875 26.125 37.125 26 37.25 25.875L49.75 13.625C49.75 13.625 52.125 10.75 55.5 10.625C57.75 10.5 59.875 11.5 62 13.625C62.5 14.125 63.125 14.125 63.5 13.75Z" fill="white"/>
<path d="M68.125 47.125C64.5 43.125 59.375 40.75 53.75 40.75C43 40.75 34.375 49.375 34.375 60.125C34.375 65.75 36.875 70.875 40.75 74.5C40.75 74.5 40.75 74.5 40.875 74.5C44.25 77.5 48.75 79.375 53.75 79.375C64.5 79.375 73.125 70.75 73.125 60C73.125 55.125 71.25 50.625 68.125 47.125ZM36.125 60C36.125 50.375 44 42.5 53.625 42.5C58.5 42.5 62.875 44.5 66.125 47.75L41.375 72.375C38.125 69.25 36.125 64.875 36.125 60ZM53.625 77.5C49.5 77.5 45.75 76.125 42.75 73.625L67.375 49.125C69.75 52.125 71.25 55.875 71.25 60C71.25 69.625 63.375 77.5 53.625 77.5Z" fill="white"/>
</g>
</g>
<defs>
<clipPath id="clip0_192_17">
<rect width="80" height="80" fill="white"/>
</clipPath>
<clipPath id="clip1_192_17">
<rect width="80" height="80" fill="white"/>
</clipPath>
</defs>
</svg>
