<svg width="266" height="181" viewBox="0 0 266 181" fill="none" xmlns="http://www.w3.org/2000/svg">
<g filter="url(#filter0_ddddd_320_287)">
<path fill-rule="evenodd" clip-rule="evenodd" d="M77.3139 6.18621C70.1642 5.53108 63.8371 10.796 63.182 17.9458L60.992 41.8456C60.3369 48.9954 65.6018 55.3225 72.7516 55.9776L197.191 67.3799C197.247 67.5637 197.333 67.7452 197.45 67.9194L202.914 76.0363C203.621 77.0871 205.115 77.2239 206.002 76.3192L212.85 69.3305C212.997 69.1805 213.114 69.0176 213.203 68.8471L235.928 70.9293C243.078 71.5845 249.405 66.3195 250.06 59.1698L252.25 35.2699C252.905 28.1202 247.64 21.7931 240.49 21.1379L77.3139 6.18621Z" fill="white"/>
</g>
<path d="M100.648 39.6137C99.6173 39.5193 98.6885 39.1932 97.8613 38.6354C97.0457 38.0679 96.4223 37.3307 95.9913 36.4235C95.5719 35.5068 95.4118 34.5067 95.5111 33.4232C95.6103 32.3398 95.949 31.3907 96.5271 30.576C97.1158 29.7624 97.8623 29.1559 98.7664 28.7568C99.6822 28.348 100.655 28.1908 101.686 28.2852C102.727 28.3806 103.655 28.712 104.471 29.2795C105.298 29.8373 105.922 30.5692 106.342 31.4754C106.762 32.3815 106.923 33.3763 106.824 34.4598C106.724 35.5432 106.385 36.4976 105.806 37.3229C105.228 38.1375 104.481 38.7493 103.565 39.1581C102.661 39.5572 101.689 39.7091 100.648 39.6137ZM100.792 38.0363C101.525 38.1035 102.193 37.9987 102.797 37.722C103.402 37.4346 103.892 36.9975 104.267 36.4106C104.654 35.8141 104.885 35.1069 104.959 34.289C105.034 33.4711 104.935 32.739 104.663 32.0927C104.4 31.4474 103.998 30.9339 103.454 30.552C102.911 30.1702 102.273 29.9457 101.54 29.8785C100.807 29.8114 100.138 29.9161 99.5346 30.1929C98.9308 30.4696 98.4361 30.9009 98.0503 31.4868C97.6752 32.0737 97.4502 32.7761 97.3753 33.594C97.3003 34.4119 97.3935 35.1488 97.6547 35.8047C97.9275 36.451 98.3352 36.9704 98.8776 37.3628C99.4211 37.7447 100.059 37.9692 100.792 38.0363ZM116.857 32.1336L116.052 40.9128L114.236 40.7463L114.331 39.7107C114.011 40.0456 113.607 40.2978 113.121 40.4674C112.645 40.6274 112.148 40.6835 111.627 40.6358C110.937 40.5726 110.328 40.3722 109.802 40.0348C109.287 39.6984 108.896 39.2341 108.628 38.6419C108.372 38.0507 108.28 37.3568 108.353 36.5601L108.826 31.3977L110.627 31.5627L110.179 36.4542C110.107 37.2403 110.248 37.8637 110.602 38.3246C110.957 38.7749 111.474 39.0312 112.154 39.0935C112.834 39.1558 113.389 38.9978 113.82 38.6195C114.263 38.2316 114.52 37.6447 114.592 36.8586L115.04 31.9671L116.857 32.1336ZM120.953 33.7942C121.259 33.3724 121.641 33.0593 122.099 32.8549C122.569 32.6409 123.106 32.5616 123.712 32.6171L123.539 34.4972L123.077 34.4549C122.366 34.3897 121.807 34.5206 121.403 34.8477C121.008 35.1757 120.77 35.7859 120.689 36.6782L120.265 41.2988L118.449 41.1324L119.253 32.3532L121.07 32.5196L120.953 33.7942ZM128.5 37.6189C128.583 36.716 128.836 35.9412 129.259 35.2945C129.695 34.6381 130.253 34.1537 130.935 33.8413C131.617 33.5289 132.378 33.4111 133.217 33.488C134.279 33.5853 135.132 33.9206 135.776 34.4937C136.431 35.0572 136.838 35.8175 136.997 36.7746L135.037 36.5951C134.917 36.1449 134.694 35.7817 134.366 35.5053C134.037 35.2288 133.608 35.0663 133.077 35.0176C132.333 34.9495 131.714 35.1605 131.219 35.6508C130.736 36.1313 130.451 36.8443 130.364 37.7897C130.278 38.7351 130.428 39.4933 130.815 40.0643C131.212 40.6363 131.783 40.9563 132.526 41.0244C133.578 41.1208 134.316 40.7225 134.741 39.8295L136.7 40.0091C136.364 40.878 135.82 41.5459 135.071 42.0127C134.322 42.469 133.427 42.6494 132.386 42.554C131.547 42.4771 130.82 42.2231 130.207 41.792C129.594 41.3502 129.132 40.7724 128.823 40.0585C128.525 39.335 128.417 38.5218 128.5 37.6189ZM142.051 43.4397C141.223 43.3637 140.491 43.1092 139.856 42.6761C139.222 42.2324 138.745 41.6531 138.424 40.9383C138.105 40.2128 137.987 39.3986 138.07 38.4957C138.152 37.6035 138.421 36.8301 138.877 36.1757C139.333 35.5213 139.918 35.0393 140.632 34.7298C141.346 34.4203 142.123 34.304 142.962 34.3809C143.801 34.4578 144.543 34.7133 145.189 35.1474C145.835 35.5814 146.323 36.1617 146.652 36.8882C146.982 37.6146 147.106 38.424 147.024 39.3162C146.943 40.2085 146.668 40.9813 146.201 41.6348C145.734 42.2883 145.133 42.7741 144.397 43.0922C143.672 43.4007 142.891 43.5165 142.051 43.4397ZM142.196 41.8623C142.663 41.9051 143.109 41.8335 143.533 41.6474C143.968 41.4623 144.333 41.1583 144.629 40.7356C144.925 40.3128 145.102 39.7827 145.16 39.1454C145.219 38.5081 145.146 37.9605 144.941 37.5026C144.738 37.0341 144.444 36.6698 144.061 36.4097C143.678 36.1497 143.253 35.9982 142.785 35.9554C142.318 35.9126 141.872 35.9842 141.448 36.1703C141.035 36.3573 140.691 36.6632 140.416 37.0879C140.143 37.502 139.977 38.0278 139.918 38.6651C139.832 39.6105 140.003 40.3653 140.434 40.9296C140.876 41.4842 141.463 41.7951 142.196 41.8623ZM150.921 36.5402C151.227 36.1184 151.61 35.8053 152.068 35.6009C152.537 35.3868 153.075 35.3076 153.68 35.363L153.508 37.2432L153.046 37.2008C152.334 37.1356 151.776 37.2666 151.371 37.5936C150.977 37.9217 150.739 38.5319 150.657 39.4241L150.233 44.0448L148.417 43.8783L149.221 35.0991L151.038 35.2655L150.921 36.5402ZM163 40.5712C162.97 40.9005 162.922 41.196 162.855 41.4576L156.147 40.843C156.136 41.5489 156.344 42.1357 156.773 42.6035C157.201 43.0712 157.755 43.3362 158.435 43.3985C159.412 43.488 160.14 43.1423 160.619 42.3614L162.579 42.541C162.239 43.3239 161.695 43.9435 160.946 44.3998C160.209 44.8464 159.325 45.0225 158.295 44.9281C157.456 44.8512 156.719 44.5962 156.084 44.1631C155.46 43.7203 154.988 43.1415 154.668 42.4267C154.36 41.7022 154.247 40.8885 154.33 39.9856C154.412 39.0827 154.665 38.3079 155.089 37.6612C155.524 37.0048 156.088 36.5209 156.78 36.2095C157.484 35.899 158.265 35.7832 159.126 35.862C159.954 35.938 160.676 36.1862 161.291 36.6067C161.906 37.0272 162.364 37.5833 162.664 38.275C162.966 38.956 163.078 39.7214 163 40.5712ZM161.157 39.8239C161.207 39.1537 161.018 38.5954 160.587 38.1489C160.157 37.7025 159.596 37.4476 158.906 37.3843C158.279 37.3269 157.724 37.4796 157.241 37.8423C156.759 38.1945 156.444 38.7066 156.297 39.3786L161.157 39.8239ZM172.047 44.4047L175.189 37.4785L177.116 37.6551L172.966 46.1277L170.799 45.9292L168.274 36.8448L170.217 37.023L172.047 44.4047ZM177.485 42.0752C177.566 41.1936 177.818 40.4294 178.242 39.7827C178.676 39.1369 179.223 38.6569 179.884 38.3425C180.556 38.0185 181.275 37.8915 182.04 37.9616C182.73 38.0249 183.318 38.218 183.802 38.5409C184.298 38.8541 184.682 39.2267 184.953 39.6585L185.07 38.3839L186.902 38.5518L186.098 47.331L184.265 47.1631L184.385 45.8566C184.039 46.2426 183.588 46.5494 183.032 46.7769C182.475 47.0044 181.857 47.087 181.177 47.0247C180.423 46.9556 179.75 46.7012 179.158 46.2613C178.568 45.8109 178.118 45.2234 177.81 44.4989C177.513 43.7648 177.405 42.9569 177.485 42.0752ZM184.668 42.7655C184.724 42.1601 184.645 41.6226 184.431 41.1531C184.227 40.6846 183.934 40.315 183.552 40.0443C183.17 39.7736 182.745 39.6169 182.278 39.5741C181.81 39.5312 181.364 39.6082 180.939 39.8049C180.515 39.991 180.155 40.2954 179.859 40.7182C179.575 41.1313 179.405 41.6406 179.35 42.246C179.294 42.8515 179.368 43.3938 179.57 43.8729C179.783 44.353 180.08 44.7338 180.462 45.015C180.854 45.2867 181.279 45.4434 181.736 45.4853C182.203 45.5281 182.65 45.4512 183.075 45.2545C183.5 45.0578 183.855 44.7476 184.14 44.3238C184.437 43.8904 184.613 43.371 184.668 42.7655ZM191.38 35.9254L190.3 47.716L188.484 47.5496L189.564 35.759L191.38 35.9254ZM201.44 39.8838L200.635 48.6631L198.819 48.4966L198.914 47.461C198.594 47.7958 198.191 48.0481 197.704 48.2177C197.229 48.3777 196.731 48.4338 196.21 48.3861C195.52 48.3229 194.912 48.1225 194.385 47.7851C193.87 47.4487 193.479 46.9844 193.212 46.3922C192.955 45.801 192.863 45.1071 192.936 44.3104L193.409 39.148L195.21 39.313L194.762 44.2045C194.69 44.9905 194.831 45.614 195.185 46.0749C195.54 46.5252 196.057 46.7815 196.737 46.8438C197.417 46.9061 197.972 46.7481 198.403 46.3698C198.846 45.9819 199.103 45.395 199.175 44.6089L199.623 39.7174L201.44 39.8838ZM211.5 45.0152C211.47 45.3445 211.422 45.64 211.355 45.9016L204.647 45.287C204.636 45.9929 204.844 46.5798 205.273 47.0475C205.701 47.5152 206.255 47.7802 206.935 47.8425C207.912 47.932 208.64 47.5863 209.119 46.8054L211.079 46.985C210.739 47.7679 210.195 48.3875 209.446 48.8438C208.709 49.2904 207.825 49.4665 206.795 49.3721C205.956 49.2952 205.219 49.0402 204.584 48.6071C203.96 48.1643 203.488 47.5855 203.168 46.8707C202.86 46.1462 202.747 45.3325 202.829 44.4296C202.912 43.5267 203.165 42.7519 203.589 42.1052C204.024 41.4488 204.588 40.9649 205.28 40.6535C205.984 40.343 206.765 40.2272 207.626 40.306C208.454 40.382 209.176 40.6302 209.791 41.0507C210.406 41.4712 210.864 42.0273 211.164 42.719C211.466 43.4 211.578 44.1655 211.5 45.0152ZM209.657 44.2679C209.707 43.5977 209.518 43.0394 209.087 42.5929C208.657 42.1465 208.096 41.8916 207.406 41.8283C206.779 41.7709 206.224 41.9236 205.741 42.2863C205.259 42.6385 204.944 43.1506 204.797 43.8226L209.657 44.2679ZM216.159 38.9189L215.244 46.6275L213.73 46.4888L214.231 38.7422L216.159 38.9189ZM214.226 50.0208C213.897 49.9906 213.631 49.8538 213.428 49.6103C213.225 49.3668 213.139 49.0804 213.169 48.7511C213.199 48.4218 213.336 48.1559 213.58 47.9532C213.823 47.7506 214.11 47.6644 214.439 47.6946C214.758 47.7238 215.018 47.8601 215.221 48.1036C215.424 48.3471 215.51 48.6335 215.48 48.9628C215.449 49.2921 215.313 49.558 215.069 49.7607C214.826 49.9633 214.544 50.05 214.226 50.0208Z" fill="#18181B"/>
<defs>
<filter id="filter0_ddddd_320_287" x="0.936523" y="0.131104" width="264.368" height="180.788" filterUnits="userSpaceOnUse" color-interpolation-filters="sRGB">
<feFlood flood-opacity="0" result="BackgroundImageFix"/>
<feColorMatrix in="SourceAlpha" type="matrix" values="0 0 0 0 0 0 0 0 0 0 0 0 0 0 0 0 0 0 127 0" result="hardAlpha"/>
<feOffset/>
<feColorMatrix type="matrix" values="0 0 0 0 0 0 0 0 0 0 0 0 0 0 0 0 0 0 0.1 0"/>
<feBlend mode="normal" in2="BackgroundImageFix" result="effect1_dropShadow_320_287"/>
<feColorMatrix in="SourceAlpha" type="matrix" values="0 0 0 0 0 0 0 0 0 0 0 0 0 0 0 0 0 0 127 0" result="hardAlpha"/>
<feOffset dx="-2" dy="5"/>
<feGaussianBlur stdDeviation="5.5"/>
<feColorMatrix type="matrix" values="0 0 0 0 0 0 0 0 0 0 0 0 0 0 0 0 0 0 0.1 0"/>
<feBlend mode="normal" in2="effect1_dropShadow_320_287" result="effect2_dropShadow_320_287"/>
<feColorMatrix in="SourceAlpha" type="matrix" values="0 0 0 0 0 0 0 0 0 0 0 0 0 0 0 0 0 0 127 0" result="hardAlpha"/>
<feOffset dx="-7" dy="18"/>
<feGaussianBlur stdDeviation="10"/>
<feColorMatrix type="matrix" values="0 0 0 0 0 0 0 0 0 0 0 0 0 0 0 0 0 0 0.09 0"/>
<feBlend mode="normal" in2="effect2_dropShadow_320_287" result="effect3_dropShadow_320_287"/>
<feColorMatrix in="SourceAlpha" type="matrix" values="0 0 0 0 0 0 0 0 0 0 0 0 0 0 0 0 0 0 127 0" result="hardAlpha"/>
<feOffset dx="-16" dy="41"/>
<feGaussianBlur stdDeviation="13"/>
<feColorMatrix type="matrix" values="0 0 0 0 0 0 0 0 0 0 0 0 0 0 0 0 0 0 0.05 0"/>
<feBlend mode="normal" in2="effect3_dropShadow_320_287" result="effect4_dropShadow_320_287"/>
<feColorMatrix in="SourceAlpha" type="matrix" values="0 0 0 0 0 0 0 0 0 0 0 0 0 0 0 0 0 0 127 0" result="hardAlpha"/>
<feOffset dx="-29" dy="73"/>
<feGaussianBlur stdDeviation="15.5"/>
<feColorMatrix type="matrix" values="0 0 0 0 0 0 0 0 0 0 0 0 0 0 0 0 0 0 0.01 0"/>
<feBlend mode="normal" in2="effect4_dropShadow_320_287" result="effect5_dropShadow_320_287"/>
<feBlend mode="normal" in="SourceGraphic" in2="effect5_dropShadow_320_287" result="shape"/>
</filter>
</defs>
</svg>
